HIERARCHY
ROOT Hips
{
	OFFSET 0.000000 0.000000 0.000000 
	CHANNELS 6 Xposition Yposition Zposition Yrotation Zrotation Xrotation 
	JOINT Lumbar
	{
		OFFSET 0.000000 0.000000 0.000000 
		CHANNELS 3 Zrotation Xrotation Yrotation
		JOINT Neck
		{
			OFFSET 0.000000 0.445665 0.000000 
			CHANNELS 3 Zrotation Xrotation Yrotation
			End Site
			{
				OFFSET 0.000000 0.227535 0.000000 
			}
		}
		JOINT RightShoulder
		{
			OFFSET 0.019635 0.377685 0.194865 
			CHANNELS 3 Zrotation Xrotation Yrotation
			JOINT RightElbow
			{
				OFFSET 0.000000 -0.243375 0.000000 
				CHANNELS 2 Zrotation Yrotation
				JOINT RightWrist
				{
					OFFSET 0.000000 -0.264825 0.000000 
					CHANNELS 2 Zrotation Xrotation
					End Site
					{
						OFFSET 0.006600 -0.176220 0.000990 
					}
				}
			}
		}
		JOINT LeftShoulder
		{
			OFFSET 0.019635 0.377685 -0.194865 
			CHANNELS 3 Zrotation Xrotation Yrotation
			JOINT LeftElbow
			{
				OFFSET 0.000000 -0.243375 0.000000 
				CHANNELS 2 Zrotation Yrotation
				JOINT LeftWrist
				{
					OFFSET 0.000000 -0.264825 0.000000 
					CHANNELS 2 Zrotation Xrotation
					End Site
					{
						OFFSET 0.006600 -0.176220 -0.000990 
					}
				}
			}
		}
	}
	JOINT RightHip
	{
		OFFSET 0.052140 -0.069960 0.075570 
		CHANNELS 3 Zrotation Xrotation Yrotation
		JOINT RightKnee
		{
			OFFSET 0.000000 -0.402270 0.000000 
			CHANNELS 1 Zrotation
			JOINT RightAnkle
			{
				OFFSET 0.000000 -0.404085 0.000000 
				CHANNELS 3 Zrotation Xrotation Yrotation
				End Site
				{
					OFFSET 0.204105 -0.089430 0.008415 
				}
			}
		}
	}
	JOINT LeftHip
	{
		OFFSET 0.052140 -0.069960 -0.075570 
		CHANNELS 3 Zrotation Xrotation Yrotation
		JOINT LeftKnee
		{
			OFFSET 0.000000 -0.402270 0.000000 
			CHANNELS 1 Zrotation
			JOINT LeftAnkle
			{
				OFFSET 0.000000 -0.404085 0.000000 
				CHANNELS 3 Zrotation Xrotation Yrotation
				End Site
				{
					OFFSET 0.204105 -0.089430 -0.008415 
				}
			}
		}
	}
}
MOTION
Frames: 17
Frame Time: 0.02
0 0.95578 -0 187.6134 0 -2.78713 5.47267 2.13124 -3.98437 -9.244 4.84745 -1.09212 20.36039 -12.66409 30.84792 15.56272 81.75791 -2.06985 -5.99417 25.65704 3.0732 -15.77136 13.05903 -83.48076 -5.16071 4.3057 -5.76511 7.30866 -2.57204 -3.64536 1.73835 -3.03941 -5.59964 -3.46862 0.70449 -12.81101 -4.8768 4.28653 3.22041 4.52452
-0.00047 0.95563 0.00027 187.63654 0 -2.79037 5.3895 2.15176 -3.99872 -9.19847 4.93306 -1.08338 18.88868 -13.0588 28.52068 14.26668 81.6202 -1.82538 -5.14061 23.93663 3.21368 -15.92738 11.95926 -83.45747 -4.90735 3.75422 -5.82427 7.34226 -1.37214 -3.59484 1.63817 -3.37161 -6.83041 -3.52993 0.65888 -13.90287 -4.83531 4.26816 3.22023 5.59995
-0.00094 0.95548 0.00053 187.65926 0 -2.79369 5.30624 2.17232 -4.01314 -9.15223 5.01838 -1.07473 17.41807 -13.45309 26.17583 12.97761 81.47861 -1.58462 -4.29017 22.21688 3.35348 -16.04889 10.86638 -83.42917 -4.65684 3.20411 -5.88312 7.3756 -0.18305 -3.54473 1.53888 -3.7011 -8.05005 -3.59097 0.61389 -14.98084 -4.79403 4.25019 3.22033 6.66188
-0.00142 0.95532 0.0008 187.68165 0 -2.79719 5.22283 2.19304 -4.02856 -9.10475 5.10371 -1.06683 15.94275 -13.84888 23.75032 11.70244 81.32581 -1.35526 -3.4438 20.48809 3.49164 -16.07776 9.78979 -83.38269 -4.41392 2.65203 -5.94214 7.40833 0.97923 -3.49497 1.44186 -4.02494 -9.24298 -3.65215 0.5711 -16.01076 -4.7522 4.23389 3.22219 7.67599
-0.00187 0.95516 0.00106 187.70715 0 -2.79952 5.14145 2.21268 -4.0394 -9.06632 5.1894 -1.05551 14.49866 -14.23594 21.76691 10.35207 81.2391 -1.06424 -2.5758 18.81327 3.63809 -16.65002 8.62629 -83.43494 -4.12916 2.1079 -6.00123 7.4444 2.28905 -3.4424 1.33247 -4.38105 -10.58427 -3.71334 0.5169 -17.29143 -4.7121 4.20906 3.21549 8.93824
-0.00237 0.95502 0.00133 187.72511 0 -2.80446 5.05502 2.23474 -4.05944 -9.00707 5.27395 -1.05107 12.9857 -14.64158 18.84045 9.16317 81.00813 -0.9048 -1.75446 17.0219 3.76715 -16.03673 7.64817 -83.27669 -3.93427 1.54919 -6.05943 7.47328 3.28176 -3.39647 1.24957 -4.66699 -11.60579 -3.77391 0.48671 -18.04307 -4.66918 4.20209 3.2264 9.67795
-0.0031 0.95495 0.00161 187.72982 0 -2.81608 4.95886 2.26312 -4.11017 -8.90111 5.3599 -1.0694 11.27031 -15.10719 13.21816 8.3942 80.39802 -1.11002 -1.04346 14.8818 3.8483 -12.31463 7.17028 -82.52624 -3.98279 0.91912 -6.12265 7.48332 3.42889 -3.36254 1.23803 -4.77367 -11.78247 -3.83886 0.52587 -17.27804 -4.60998 4.24769 3.29238 8.91129
-0.00388 0.95491 0.0019 187.72555 0 -2.83044 4.85675 2.29409 -4.16919 -8.77212 5.44373 -1.0941 9.48676 -15.59019 6.65702 7.79214 79.63947 -1.4478 -0.38233 12.62742 3.91238 -7.36393 6.88117 -81.56558 -4.12343 0.27967 -6.18369 7.48599 3.25275 -3.33628 1.25329 -4.80744 -11.63177 -3.90209 0.58878 -15.9881 -4.54933 4.31074 3.37513 7.62763
-0.00459 0.95486 0.00217 187.72042 0 -2.84391 4.75449 2.32413 -4.22113 -8.64641 5.52596 -1.11331 7.73887 -16.06059 0.57433 7.12973 78.93368 -1.72476 0.29063 10.43897 3.98381 -2.85932 6.51271 -80.70571 -4.22447 -0.33648 -6.24091 7.49128 3.20216 -3.3108 1.2578 -4.86468 -11.60327 -3.96224 0.63888 -14.9738 -4.49489 4.36376 3.446 6.62103
-0.00546 0.95478 0.00249 187.73604 0 -2.85593 4.66425 2.35298 -4.28733 -8.55073 5.61991 -1.14306 5.96725 -16.55198 -5.73704 6.40217 78.28418 -2.00534 1.00979 8.18828 4.0553 1.18265 6.11714 -79.81899 -4.31403 -1.03425 -6.31834 7.49933 3.2324 -3.26796 1.25738 -4.96077 -11.67753 -4.03878 0.69737 -13.80387 -4.41737 4.42573 3.53446 5.43788
-0.00602 0.95478 0.00271 187.70645 0 -2.87157 4.54761 2.38508 -4.32546 -8.38744 5.68781 -1.15289 4.23416 -17.00221 -11.78149 5.84973 77.48952 -2.30838 1.62014 6.04445 4.12469 6.46555 5.8229 -78.94422 -4.45183 -1.56252 -6.35328 7.50026 3.02915 -3.26229 1.27222 -4.96099 -11.47174 -4.08064 0.74415 -12.8323 -4.38711 4.4731 3.59074 4.49825
-0.00579 0.95499 0.00271 187.55298 0 -2.89689 4.35914 2.42418 -4.28686 -8.03963 5.69424 -1.10188 2.57939 -17.34839 -16.97706 5.74159 76.26678 -2.65355 1.94855 4.18697 4.17465 14.99226 5.76169 -78.10295 -4.67938 -1.63557 -6.27023 7.48009 2.15621 -3.36424 1.33469 -4.69349 -10.46824 -4.02821 0.75177 -12.54636 -4.49147 4.47658 3.54991 4.36935
-0.00523 0.95527 0.00262 187.35462 0 -2.92567 4.14441 2.46665 -4.21925 -7.62535 5.67285 -1.03143 0.97516 -17.6501 -21.84836 5.80368 74.91475 -3.01435 2.16779 2.44912 4.22636 24.69731 5.79608 -77.29073 -4.95627 -1.53504 -6.14468 7.45351 1.07586 -3.50201 1.40958 -4.33552 -9.21076 -3.94073 0.74697 -12.47641 -4.64258 4.46456 3.47686 4.5011
-0.00479 0.95552 0.00257 187.1775 0 -2.95265 3.94195 2.50853 -4.16296 -7.24364 5.65742 -0.9727 -0.62429 -17.96294 -26.79276 5.78668 73.66382 -3.35984 2.43315 0.67875 4.28898 33.79355 5.78701 -76.49828 -5.22422 -1.50389 -6.0394 7.43214 0.16259 -3.61893 1.47054 -4.03309 -8.14187 -3.8686 0.74849 -12.30131 -4.76997 4.45929 3.42137 4.50581
-0.00448 0.95579 0.00253 186.99619 0 -2.98077 3.73776 2.54677 -4.11454 -6.85065 5.66937 -0.902 -2.34776 -18.31418 -32.08919 5.78248 72.22971 -3.74482 2.71241 -1.19345 4.30175 43.26749 5.78442 -75.55822 -5.43824 -1.51262 -5.93014 7.40127 -1.05692 -3.7556 1.56641 -3.66877 -6.76484 -3.7989 0.74797 -12.13728 -4.90829 4.45617 3.35433 4.52888
-0.00382 0.95603 0.00243 186.81348 0 -3.00721 3.53115 2.59307 -4.04309 -6.4663 5.61868 -0.85156 -3.7944 -18.57529 -36.55595 5.79024 71.14741 -4.04928 2.93633 -2.81663 4.4188 52.18679 5.78881 -74.93656 -5.77537 -1.39763 -5.81893 7.38822 -1.69932 -3.85934 1.59341 -3.41085 -5.95831 -3.71579 0.74845 -12.00853 -5.03429 4.4443 3.30324 4.58215
-0.00235 0.95619 0.00216 186.6345 0 -3.02889 3.32325 2.66341 -3.91217 -6.11691 5.39327 -0.86151 -4.53508 -18.59217 -38.86113 5.78559 71.07823 -4.1288 3.04352 -3.83889 4.82516 59.54594 5.78621 -75.17598 -6.4357 -0.97769 -5.7144 7.43069 -0.55687 -3.86513 1.41599 -3.48665 -6.92624 -3.60427 0.7545 -11.9254 -5.12096 4.41498 3.30584 4.65931
